<?xml version="1.0" standalone="no"?>
<!DOCTYPE svg PUBLIC "-//W3C//DTD SVG 20010904//EN"
 "http://www.w3.org/TR/2001/REC-SVG-20010904/DTD/svg10.dtd">
<svg version="1.0" xmlns="http://www.w3.org/2000/svg"
 width="1000.000000pt" height="1000.000000pt" viewBox="0 0 1000.000000 1000.000000"
 preserveAspectRatio="xMidYMid meet">
<metadata>
Created by potrace 1.14, written by Peter Selinger 2001-2017
</metadata>
<g transform="translate(0.000000,1000.000000) scale(0.100000,-0.100000)"
fill="#000000" stroke="none">
<path d="M4890 9112 c-62 -108 -144 -249 -180 -312 -342 -590 -507 -876 -680
-1175 -112 -192 -211 -363 -220 -380 -24 -42 -119 -207 -187 -322 -31 -54 -80
-138 -108 -188 -28 -49 -63 -109 -78 -132 -15 -24 -27 -45 -27 -47 0 -2 -43
-77 -95 -167 -52 -89 -95 -163 -95 -165 0 -2 -28 -50 -62 -106 -34 -57 -66
-112 -72 -123 -6 -11 -41 -71 -76 -132 -36 -62 -72 -125 -80 -140 -8 -16 -25
-44 -37 -63 -11 -19 -30 -51 -41 -70 -11 -19 -210 -363 -442 -765 -232 -401
-430 -743 -439 -760 -9 -16 -24 -41 -33 -55 -19 -31 -425 -734 -447 -775 -9
-16 -18 -32 -21 -35 -3 -3 -10 -14 -16 -25 -6 -11 -267 -463 -581 -1005 -313
-542 -581 -1004 -594 -1027 -13 -23 -66 -115 -118 -205 -52 -90 -100 -173
-109 -185 l-14 -23 4967 0 4967 0 -20 33 c-11 17 -29 48 -40 67 -11 19 -207
359 -437 755 -229 396 -427 738 -440 760 -12 22 -69 121 -127 220 -249 430
-482 833 -504 872 -13 23 -54 93 -90 155 -37 62 -76 130 -88 151 -24 42 -178
309 -200 347 -43 72 -146 251 -167 289 -13 24 -29 51 -34 60 -37 58 -778 1340
-822 1421 -20 36 -43 76 -53 90 -14 21 -126 213 -198 340 -10 19 -68 118 -127
220 -59 102 -116 199 -126 217 -144 252 -327 566 -345 595 -13 21 -24 40 -24
43 0 3 -16 31 -35 61 -19 30 -35 56 -35 59 0 2 -38 68 -84 147 -46 79 -92 159
-103 178 -11 19 -70 121 -130 225 -61 105 -120 206 -130 225 -11 19 -59 103
-107 185 -48 83 -92 159 -98 170 -78 134 -401 691 -402 692 -1 1 -53 -87 -116
-195z m280 -2367 c0 -2 28 -50 62 -107 33 -56 72 -123 86 -148 14 -25 205
-355 425 -735 507 -875 544 -938 580 -1005 16 -30 36 -62 43 -71 8 -8 14 -18
14 -21 0 -4 21 -42 46 -85 57 -95 68 -113 183 -315 10 -18 42 -73 71 -123 29
-49 64 -110 78 -135 14 -25 35 -61 47 -80 12 -19 24 -42 28 -50 4 -8 11 -22
17 -30 24 -37 90 -151 90 -155 0 -3 11 -23 24 -44 14 -21 84 -141 157 -267 73
-126 164 -283 202 -349 38 -66 81 -140 95 -165 14 -25 33 -57 43 -72 11 -14
19 -29 19 -32 0 -3 13 -27 29 -53 15 -27 88 -151 161 -278 74 -126 173 -298
222 -382 48 -84 88 -156 88 -161 0 -6 -1206 -9 -2975 -9 -1636 0 -2975 3
-2975 8 0 8 151 271 348 609 47 80 95 163 107 185 13 22 46 81 75 130 29 50
61 106 72 125 11 19 54 94 96 165 41 72 83 144 92 160 47 83 151 262 159 275
6 8 26 42 44 75 19 33 67 116 107 185 40 69 80 139 90 155 38 66 122 211 131
225 12 19 353 610 387 670 13 25 39 70 58 100 25 43 638 1102 714 1235 10 17
33 57 53 90 19 33 48 83 63 111 16 28 108 187 203 352 l175 301 83 -141 c46
-77 83 -142 83 -143z"/>
<path d="M5000 5950 c0 -5 -22 -47 -49 -92 -26 -46 -91 -157 -143 -248 -53
-91 -193 -333 -312 -538 -119 -206 -216 -378 -216 -383 0 -5 -4 -9 -10 -9 -5
0 -10 -4 -10 -8 0 -5 -94 -171 -208 -368 -115 -197 -220 -379 -234 -404 -14
-25 -63 -110 -110 -190 -95 -164 -246 -425 -263 -455 -6 -11 -23 -39 -38 -62
-15 -24 -27 -45 -27 -48 0 -3 -19 -38 -43 -78 -24 -39 -75 -126 -113 -192 -38
-66 -74 -129 -81 -140 -7 -11 -17 -29 -22 -40 -6 -11 -46 -81 -89 -155 l-80
-135 1029 -3 c566 -1 1492 -1 2058 0 l1028 3 -52 90 c-29 50 -118 205 -200
345 -81 140 -156 271 -167 290 -11 19 -44 76 -73 125 -29 50 -64 110 -77 135
-14 25 -148 257 -298 515 -150 259 -281 484 -290 500 -10 17 -124 215 -255
440 -131 226 -247 426 -257 445 -126 223 -389 670 -394 670 -2 0 -4 -4 -4 -10z"/>
</g>
</svg>
